Coordinates
version=1
nRows=13
nColumns=40
inDegrees=yes

Units are S.I. units (second, meters, Newtons, ...)
If the header above contains a line with 'inDegrees', this indicates whether rotational values are in degrees (yes) or radians (no).

endheader
time	pelvis_tilt	pelvis_list	pelvis_rotation	pelvis_tx	pelvis_ty	pelvis_tz	hip_flexion_r	hip_adduction_r	hip_rotation_r	knee_angle_r	knee_angle_r_beta	ankle_angle_r	subtalar_angle_r	mtp_angle_r	hip_flexion_l	hip_adduction_l	hip_rotation_l	knee_angle_l	knee_angle_l_beta	ankle_angle_l	subtalar_angle_l	mtp_angle_l	lumbar_extension	lumbar_bending	lumbar_rotation	arm_flex_r	arm_add_r	arm_rot_r	elbow_flex_r	pro_sup_r	wrist_flex_r	wrist_dev_r	arm_flex_l	arm_add_l	arm_rot_l	elbow_flex_l	pro_sup_l	wrist_flex_l	wrist_dev_l
      3.19000000	    -26.51493093	    -11.60529695	      5.96193523	     -3.38393479	      0.99117731	      0.35835415	     68.08535518	     -0.42690948	    -22.28057912	     62.62670146	      1.09304214	     14.39651526	      0.00000000	      0.00000000	     -2.71489202	    -17.00068074	     -5.71530921	     20.41346354	      0.35628215	    -27.02633529	      0.00000000	      0.00000000	     -0.68335652	     18.53469943	     -1.64842907	    -50.79955137	    -13.82473155	    -48.03261288	     86.37408468	     88.19933210	      0.00000000	      0.00000000	     56.69581213	     -4.11919058	     54.89747844	     78.01459522	     87.68038049	      0.00000000	      0.00000000
      3.19500000	    -26.16638135	    -11.56919169	      5.18474950	     -3.35246535	      0.99370243	      0.35732564	     66.86002723	      0.14993993	    -23.51213484	     58.90554814	      1.02809576	     13.64406958	      0.00000000	      0.00000000	     -3.56033005	    -16.76277800	     -6.11089330	     21.91984408	      0.38257345	    -28.90603662	      0.00000000	      0.00000000	     -1.02314257	     18.90104571	     -1.10747828	    -49.27327995	    -14.25716602	    -46.78016877	     86.80840171	     88.17573546	      0.00000000	      0.00000000	     55.35918277	     -4.71123846	     55.82749043	     76.89482420	     87.74582617	      0.00000000	      0.00000000
      3.20000000	    -25.64857637	    -11.37947073	      4.41882070	     -3.32100069	      0.99636083	      0.35641685	     65.36229245	      0.72455077	    -24.63751143	     55.51099389	      0.96884961	     12.90365719	      0.00000000	      0.00000000	     -4.33852602	    -16.32096048	     -6.44805018	     23.91986898	      0.41748047	    -29.93708031	      0.00000000	      0.00000000	     -1.60202967	     19.08378237	     -0.52316100	    -47.44323828	    -14.61706668	    -45.33948809	     87.15236752	     88.19781516	      0.00000000	      0.00000000	     53.96281756	     -5.35260690	     56.76874318	     75.56609326	     87.74132614	      0.00000000	      0.00000000
      3.20500000	    -25.25775810	    -10.60610231	      3.67842791	     -3.28996870	      0.99869817	      0.35520452	     64.00899312	      0.90888203	    -25.19433554	     52.70632041	      0.91989883	     12.31422692	      0.00000000	      0.00000000	     -4.71369712	    -15.09016816	     -6.19733517	     26.30760005	      0.45915424	    -30.60164702	      0.00000000	      0.00000000	     -2.08435422	     18.62175245	     -0.04311578	    -45.33418546	    -14.91296485	    -43.69973192	     87.42760854	     88.18580858	      0.00000000	      0.00000000	     52.46715883	     -6.07840363	     57.67682325	     74.03697238	     87.65664953	      0.00000000	      0.00000000
      3.21000000	    -24.62588535	    -10.41206162	      2.82308117	     -3.25852350	      1.00129439	      0.35452081	     62.23544445	      1.58781765	    -26.31577751	     50.01683239	      0.87295841	     11.26785052	      0.00000000	      0.00000000	     -5.08286233	    -14.61929012	     -6.84999868	     29.28090481	      0.51104820	    -30.50406354	      0.00000000	      0.00000000	     -2.84795484	     18.78436667	      0.49526160	    -42.98387861	    -15.39604647	    -41.72960437	     87.58515815	     88.23219339	      0.00000000	      0.00000000	     50.77837763	     -6.96252203	     58.39552735	     72.61992006	     87.72435133	      0.00000000	      0.00000000
      3.21500000	    -24.06439108	     -9.64697433	      2.00068949	     -3.22756018	      1.00357851	      0.35367985	     60.58219424	      1.84243250	    -26.83198143	     47.96945824	      0.83722499	     10.55881251	      0.00000000	      0.00000000	     -5.14104062	    -13.40516666	     -6.99178393	     32.44825275	      0.56632885	    -30.43758720	      0.00000000	      0.00000000	     -3.56154560	     18.28811839	      0.96686915	    -40.33064084	    -15.67766817	    -39.62740254	     87.60849915	     88.25334936	      0.00000000	      0.00000000	     49.10546246	     -7.88774826	     59.18241485	     70.94544365	     87.71048353	      0.00000000	      0.00000000
      3.22000000	    -23.48807133	     -8.94653269	      1.10857950	     -3.19675648	      1.00566027	      0.35290374	     58.86359441	      2.15819357	    -27.27225586	     46.27077120	      0.80757730	      9.84816599	      0.00000000	      0.00000000	     -4.97925411	    -12.27033997	     -7.32288573	     35.97159477	      0.62782277	    -30.00961066	      0.00000000	      0.00000000	     -4.30979984	     17.86383548	      1.45650739	    -37.50534424	    -15.95346467	    -37.33892945	     87.62161238	     88.27649214	      0.00000000	      0.00000000	     47.29053817	     -8.84053815	     59.73487209	     69.19444763	     87.72236926	      0.00000000	      0.00000000
      3.22500000	    -22.96152628	     -8.34513972	      0.17843122	     -3.16602597	      1.00741170	      0.35226571	     57.13887764	      2.52748872	    -27.64188424	     44.90692688	      0.78377373	      9.21300331	      0.00000000	      0.00000000	     -4.55503898	    -11.27638678	     -7.77821140	     39.76695658	      0.69406433	    -29.34088154	      0.00000000	      0.00000000	     -5.01271040	     17.54357607	      1.95310107	    -34.56001254	    -16.15842614	    -34.88178016	     87.65120864	     88.29171884	      0.00000000	      0.00000000	     45.29017929	     -9.78224065	     60.00661975	     67.37524102	     87.75616248	      0.00000000	      0.00000000
      3.23000000	    -22.37566732	     -7.65603151	     -0.76445616	     -3.13553108	      1.00896723	      0.35161612	     55.32129010	      2.81042443	    -27.71916121	     43.88526477	      0.76594236	      8.74235727	      0.00000000	      0.00000000	     -4.02477377	    -10.18564022	     -8.23099060	     43.62934574	      0.76147573	    -28.78732926	      0.00000000	      0.00000000	     -5.78469288	     17.10621318	      2.49568717	    -31.47459983	    -16.25135106	    -32.36055444	     87.59010752	     88.31187028	      0.00000000	      0.00000000	     43.33237085	    -10.70952264	     60.31009203	     65.41046136	     87.77087604	      0.00000000	      0.00000000
      3.23500000	    -21.81373004	     -7.03256342	     -1.76696193	     -3.10520809	      1.01021068	      0.35117534	     53.46616088	      3.16213738	    -27.58829158	     43.07821814	      0.75185674	      8.38355620	      0.00000000	      0.00000000	     -3.32510292	     -9.20826964	     -8.76902334	     47.57790076	      0.83039102	    -28.07002604	      0.00000000	      0.00000000	     -6.55402562	     16.72138487	      3.09685442	    -28.28146764	    -16.27491135	    -29.69534961	     87.52467744	     88.33561478	      0.00000000	      0.00000000	     41.27195978	    -11.63807975	     60.39694231	     63.43179844	     87.80785302	      0.00000000	      0.00000000
      3.24000000	    -21.33370836	     -6.53894680	     -2.81007502	     -3.07489338	      1.01104542	      0.35084546	     51.60974681	      3.61312304	    -27.27234368	     42.45023939	      0.74089645	      8.18300683	      0.00000000	      0.00000000	     -2.41763129	     -8.43471641	     -9.39094202	     51.58595761	      0.90034481	    -27.27646610	      0.00000000	      0.00000000	     -7.23612243	     16.48646625	      3.68943361	    -25.02951965	    -16.25383630	    -26.89459926	     87.49150358	     88.35146146	      0.00000000	      0.00000000	     38.95993438	    -12.56174166	     59.99556418	     61.48676855	     87.89566477	      0.00000000	      0.00000000
      3.24500000	    -20.71954438	     -5.98446221	     -3.85361806	     -3.04481057	      1.01177530	      0.35062709	     49.55167353	      4.01425205	    -26.60771954	     41.98025170	      0.73269361	      8.27557904	      0.00000000	      0.00000000	     -1.53468135	     -7.59793802	     -9.91360367	     55.51816729	      0.96897481	    -26.41646022	      0.00000000	      0.00000000	     -8.07785155	     16.12118837	      4.50116907	    -21.80120577	    -16.05444866	    -24.16623464	     87.49070428	     88.37314406	      0.00000000	      0.00000000	     36.93984977	    -13.39364290	     60.06572582	     59.36296388	     87.90252303	      0.00000000	      0.00000000
      3.25000000	    -20.19676912	     -5.55091336	     -5.00659689	     -3.01473152	      1.01205997	      0.35070035	     47.51609166	      4.57903381	    -25.64624632	     41.65093010	      0.72694587	      8.63836645	      0.00000000	      0.00000000	     -0.47698227	     -6.98442982	    -10.58551975	     59.47785137	      1.03808434	    -25.36734058	      0.00000000	      0.00000000	     -8.85896838	     15.87672585	      5.39269013	    -18.57240604	    -15.81749924	    -21.34061895	     87.59840140	     88.39189998	      0.00000000	      0.00000000	     34.63356374	    -14.23876214	     59.49594298	     57.43385836	     87.96106411	      0.00000000	      0.00000000
